<?xml version="1.0" standalone="no"?>
<!DOCTYPE svg PUBLIC "-//W3C//DTD SVG 20010904//EN"
 "http://www.w3.org/TR/2001/REC-SVG-20010904/DTD/svg10.dtd">
<svg version="1.0" xmlns="http://www.w3.org/2000/svg"
 width="258.000000pt" height="258.000000pt" viewBox="0 0 258.000000 258.000000"
 preserveAspectRatio="xMidYMid meet">

<g transform="translate(0.000000,258.000000) scale(0.100000,-0.100000)"
fill="#000000" stroke="none">
<path d="M1140 2569 c-135 -22 -222 -44 -318 -80 -281 -105 -516 -317 -675
-610 -125 -232 -174 -545 -127 -817 55 -316 149 -502 365 -718 121 -122 199
-180 335 -250 196 -102 239 -112 281 -68 23 25 24 30 24 185 0 189 0 190 -118
219 -135 34 -220 84 -289 173 l-33 42 58 -52 c60 -54 157 -108 213 -119 53
-10 124 5 149 30 21 21 95 231 95 269 0 34 -46 68 -130 98 -146 51 -236 115
-326 231 -127 164 -135 320 -27 503 l35 60 -6 102 c-8 114 -1 172 22 180 28
11 137 -18 219 -59 l83 -41 99 16 c130 22 300 22 430 0 l103 -17 59 32 c81 45
182 82 224 82 28 0 37 -5 44 -22 16 -44 21 -138 11 -208 l-10 -71 40 -73 c120
-218 102 -436 -50 -609 -44 -50 -136 -100 -245 -132 -182 -53 -189 -63 -150
-188 24 -75 26 -103 33 -344 7 -258 7 -262 31 -287 37 -40 70 -34 210 40 146
77 237 134 324 204 253 203 441 588 454 931 5 108 2 145 -21 263 -64 331 -165
536 -361 731 -217 217 -419 312 -796 374 -77 13 -180 13 -259 0z m370 -190
c245 -53 426 -153 587 -322 129 -136 208 -279 258 -469 74 -280 73 -443 -1
-666 -87 -258 -226 -454 -414 -579 -87 -58 -201 -125 -205 -121 -2 2 -8 95
-13 208 -6 113 -14 214 -17 225 -5 18 4 23 78 49 210 71 354 224 414 441 21
76 24 104 20 180 -6 104 -30 202 -75 301 -29 64 -31 79 -34 200 -3 123 -5 134
-35 195 -26 51 -40 69 -70 83 -88 42 -199 28 -350 -43 l-81 -39 -94 14 c-119
18 -267 18 -386 0 l-93 -14 -72 33 c-84 39 -200 65 -287 65 -54 0 -65 -3 -89
-28 -15 -15 -38 -54 -51 -87 -20 -51 -24 -79 -24 -185 -1 -121 -2 -127 -34
-189 -80 -153 -90 -313 -30 -461 69 -168 214 -322 382 -406 48 -24 95 -44 103
-44 10 0 13 -6 9 -16 -3 -9 -9 -27 -12 -40 -5 -20 -11 -23 -28 -18 -44 14 -94
55 -201 166 -139 142 -179 170 -250 176 -48 4 -59 1 -89 -22 -79 -60 -67 -141
43 -307 153 -227 261 -320 434 -375 48 -15 57 -21 57 -41 0 -30 -9 -29 -78 6
-130 67 -300 214 -404 351 -101 135 -187 379 -202 575 -8 112 8 302 35 409 53
208 204 438 386 585 249 203 590 282 913 210z"/>
</g>
</svg>
