<?xml version="1.0" standalone="no"?>
<!DOCTYPE svg PUBLIC "-//W3C//DTD SVG 20010904//EN"
 "http://www.w3.org/TR/2001/REC-SVG-20010904/DTD/svg10.dtd">
<svg version="1.0" xmlns="http://www.w3.org/2000/svg"
 width="474.000000pt" height="474.000000pt" viewBox="0 0 474.000000 474.000000"
 preserveAspectRatio="xMidYMid meet">

<g transform="translate(0.000000,474.000000) scale(0.100000,-0.100000)"
fill="#000000" stroke="none">
<path d="M1405 4730 c-3 -5 -34 -10 -68 -10 -148 -1 -391 -52 -546 -116 -249
-103 -452 -284 -599 -534 -90 -153 -171 -472 -172 -672 0 -39 -4 -68 -10 -68
-15 0 -7 -1892 8 -2030 46 -410 156 -672 377 -894 189 -190 403 -300 692 -356
59 -11 159 -24 221 -27 61 -3 112 -10 112 -15 0 -4 428 -8 950 -8 523 0 950 4
950 9 0 4 51 11 113 14 273 14 531 96 742 236 89 59 247 217 306 306 140 211
221 466 236 743 3 61 10 112 15 112 4 0 8 428 8 950 0 523 -4 950 -9 950 -4 0
-11 51 -14 113 -14 278 -99 540 -240 746 -62 90 -187 219 -277 285 -75 56
-223 132 -328 170 -107 38 -300 75 -429 83 -62 3 -113 10 -113 15 0 12 -1917
10 -1925 -2z m1900 -430 c255 -15 394 -45 536 -116 189 -94 328 -261 397 -474
66 -203 75 -407 69 -1486 -5 -903 -7 -955 -53 -1133 -41 -162 -103 -276 -211
-387 -106 -108 -228 -176 -394 -218 -178 -46 -230 -48 -1133 -53 -925 -5
-1184 2 -1359 38 -337 68 -550 249 -653 553 -64 188 -74 379 -73 1391 2 827 6
985 34 1142 63 366 278 608 620 698 88 23 196 38 330 45 203 11 1700 11 1890
0z"/>
<path d="M3545 3902 c-27 -9 -61 -25 -75 -35 -64 -45 -120 -152 -120 -232 0
-115 93 -238 204 -270 185 -54 360 78 360 270 0 86 -24 146 -84 204 -76 74
-185 98 -285 63z"/>
<path d="M2238 3580 c-216 -27 -420 -107 -589 -231 -87 -64 -234 -217 -291
-304 -138 -210 -201 -422 -201 -675 0 -223 49 -411 155 -596 367 -640 1195
-816 1783 -379 472 351 625 996 362 1520 -105 210 -299 409 -508 524 -205 112
-492 169 -711 141z m372 -459 c122 -39 204 -88 301 -179 112 -105 184 -226
225 -378 25 -94 25 -302 0 -393 -53 -195 -187 -373 -355 -475 -267 -163 -614
-152 -865 28 -152 109 -258 260 -312 446 -26 91 -26 308 0 400 81 290 313 510
606 575 44 10 103 14 185 11 100 -3 136 -9 215 -35z"/>
</g>
</svg>
